<?xml version="1.0" encoding="utf-8"?><svg xmlns="http://www.w3.org/2000/svg" xmlns:xlink="http://www.w3.org/1999/xlink" width="3000" height="428" preserveAspectRatio="xMidYMid" viewBox="0 0 3000 428" style="z-index:1;display:block;background-color:rgb(241, 242, 243);animation-play-state:paused" ><g transform="translate(1500,214) scale(1,1) translate(-1500,-214)" style="transform:matrix(1, 0, 0, 1, 0, 0);animation-play-state:paused" ><linearGradient id="lg-0.01837620953281993" x1="0" x2="1" y1="0" y2="0" style="animation-play-state:paused" ><stop stop-color="#8cd0e5" offset="0" style="animation-play-state:paused" ></stop>

  
<stop stop-color="#376888" offset="1" style="animation-play-state:paused" ></stop></linearGradient>
<path d="M 0 0 L 0 179.688 Q 214.286 255.723 428.571 222.382 T 857.143 166.684 T 1285.71 196.727 T 1714.29 157.107 T 2142.86 204.638 T 2571.43 194.313 T 3000 168.991 L 3000 0 Z" fill="url(#lg-0.01837620953281993)" opacity="0.4" style="opacity:0.4;animation-play-state:paused" ></path>
<path d="M 0 0 L 0 219.414 Q 214.286 193.267 428.571 174.995 T 857.143 206.763 T 1285.71 168.97 T 1714.29 173.471 T 2142.86 199.076 T 2571.43 192.051 T 3000 203.72 L 3000 0 Z" fill="url(#lg-0.01837620953281993)" opacity="0.4" style="opacity:0.4;animation-play-state:paused" ></path>
<path d="M 0 0 L 0 177.371 Q 214.286 265.738 428.571 221.118 T 857.143 213.965 T 1285.71 187.201 T 1714.29 170.024 T 2142.86 171.086 T 2571.43 198.988 T 3000 209.822 L 3000 0 Z" fill="url(#lg-0.01837620953281993)" opacity="0.4" style="opacity:0.4;animation-play-state:paused" ></path>
<path d="M 0 0 L 0 201.091 Q 214.286 256.453 428.571 212.062 T 857.143 218.389 T 1285.71 173.763 T 1714.29 184.965 T 2142.86 187.042 T 2571.43 220.556 T 3000 196.354 L 3000 0 Z" fill="url(#lg-0.01837620953281993)" opacity="0.4" style="opacity:0.4;animation-play-state:paused" ></path>
<path d="M 0 0 L 0 183.263 Q 214.286 243.506 428.571 210.465 T 857.143 181.041 T 1285.71 184.871 T 1714.29 204.377 T 2142.86 206.359 T 2571.43 203.537 T 3000 194.792 L 3000 0 Z" fill="url(#lg-0.01837620953281993)" opacity="0.4" style="opacity:0.4;animation-play-state:paused" ></path>
<path d="M 0 0 L 0 186.174 Q 214.286 234.137 428.571 217.487 T 857.143 211.062 T 1285.71 221.33 T 1714.29 195.642 T 2142.86 219.585 T 2571.43 174.19 T 3000 189.53 L 3000 0 Z" fill="url(#lg-0.01837620953281993)" opacity="0.4" style="opacity:0.4;animation-play-state:paused" ></path>
<path d="M 0 0 L 0 192.637 Q 214.286 201.832 428.571 171.947 T 857.143 168.603 T 1285.71 224.342 T 1714.29 209.856 T 2142.86 175.314 T 2571.43 222.411 T 3000 195.539 L 3000 0 Z" fill="url(#lg-0.01837620953281993)" opacity="0.4" style="opacity:0.4;animation-play-state:paused" ></path>
<path d="M 0 0 L 0 202.022 Q 214.286 210.818 428.571 183.33 T 857.143 167.923 T 1285.71 197.808 T 1714.29 190.274 T 2142.86 212.297 T 2571.43 182.632 T 3000 181.341 L 3000 0 Z" fill="url(#lg-0.01837620953281993)" opacity="0.4" style="opacity:0.4;animation-play-state:paused" ></path>
<path d="M 0 0 L 0 176.341 Q 214.286 213.149 428.571 178.405 T 857.143 223.345 T 1285.71 201.962 T 1714.29 162.336 T 2142.86 183.101 T 2571.43 195.833 T 3000 211.1 L 3000 0 Z" fill="url(#lg-0.01837620953281993)" opacity="0.4" style="opacity:0.4;animation-play-state:paused" ></path></g></svg>